<?xml version="1.0" encoding="utf-8"?>
<!-- Generator: Adobe Illustrator 27.5.0, SVG Export Plug-In . SVG Version: 6.00 Build 0)  -->
<svg version="1.1" xmlns="http://www.w3.org/2000/svg" xmlns:xlink="http://www.w3.org/1999/xlink" x="0px" y="0px"
	 viewBox="0 0 500 500" style="enable-background:new 0 0 500 500;" xml:space="preserve">
<g id="BACKGROUND">
	<rect style="fill:#F3EADF;" width="500" height="500"/>
</g>
<g id="OBJECTS">
	<g>
		
			<line style="fill:none;stroke:#0085BB;stroke-width:1.5;stroke-linecap:round;stroke-linejoin:round;stroke-miterlimit:10;" x1="0" y1="337.025" x2="500" y2="337.025"/>
		
			<line style="fill:none;stroke:#0085BB;stroke-width:2;stroke-linecap:round;stroke-linejoin:round;stroke-miterlimit:10;" x1="0" y1="324.491" x2="500" y2="324.491"/>
		
			<line style="fill:none;stroke:#0085BB;stroke-width:1.25;stroke-linecap:round;stroke-linejoin:round;stroke-miterlimit:10;" x1="0" y1="349.558" x2="500" y2="349.558"/>
		
			<line style="fill:none;stroke:#0085BB;stroke-linecap:round;stroke-linejoin:round;stroke-miterlimit:10;" x1="0" y1="362.092" x2="500" y2="362.092"/>
		
			<line style="fill:none;stroke:#0085BB;stroke-width:0.75;stroke-linecap:round;stroke-linejoin:round;stroke-miterlimit:10;" x1="0" y1="377.327" x2="500" y2="377.327"/>
		
			<line style="fill:none;stroke:#0085BB;stroke-width:0.5;stroke-linecap:round;stroke-linejoin:round;stroke-miterlimit:10;" x1="0" y1="389.861" x2="500" y2="389.861"/>
	</g>
	<g>
		<defs>
			<rect id="SVGID_1_" width="500" height="500"/>
		</defs>
		<clipPath id="SVGID_00000176761239901618068140000000057629016514625211_">
			<use xlink:href="#SVGID_1_"  style="overflow:visible;"/>
		</clipPath>
		<g style="clip-path:url(#SVGID_00000176761239901618068140000000057629016514625211_);">
			<circle style="fill:#0085BB;" cx="256.743" cy="143.604" r="113.582"/>
			<g>
				<path style="fill:#353637;" d="M231.174,221.041c0,0-14.835,5.329-35.738,13.414c-20.904,8.086-47.428,77.05-56.977,123.734
					c-9.549,46.684,0,147.478,0,147.478s26.492,23.342,118.284,23.342s118.284-23.342,118.284-23.342s9.549-100.794,0-147.478
					c-9.549-46.684-36.074-115.648-56.978-123.734c-20.904-8.086-36.936-13.414-36.936-13.414H231.174z"/>
				<path style="fill:#0085BB;" d="M356.156,294.948c16.492,23.455,23.695,45.125,28.566,64.146
					c1.953,7.625,8.148,31.967,8.148,31.967l-55.929,33.478c-0.378,41.544-1.274,96.673-1.274,96.673s-33.563,7.796-78.926,7.796
					c-37.29,0-63.804-3.852-82.142-8.427c0.21-70.186-0.564-94.465-0.564-94.465l-66.907-33.147
					c0.667-8.274,1.632-15.909,2.975-22.474c9.549-46.684,64.428-127.954,85.332-136.04
					C195.436,234.455,218.93,290.171,356.156,294.948z"/>
				<path style="fill:none;stroke:#F3EADF;stroke-width:0.5;stroke-linecap:round;stroke-linejoin:round;stroke-miterlimit:10;" d="
					M280.361,231.198c0,0-10.939-0.789-15.337,0c-4.398,0.789-2.706,4.173-9.698,4.173s-5.3-3.383-9.698-4.173
					c-4.398-0.789-15.337,0-15.337,0"/>
				<g>
					<defs>
						<path id="SVGID_00000109744296298106709290000006758033482851300253_" d="M356.156,294.948
							c16.492,23.455,23.695,45.125,28.566,64.146c1.953,7.625,8.148,31.967,8.148,31.967l-55.929,33.478
							c-0.378,41.544-1.274,96.673-1.274,96.673s-33.563,7.796-78.926,7.796c-37.29,0-63.804-3.852-82.142-8.427
							c0.21-70.186-0.564-94.465-0.564-94.465l-66.907-33.147c0.667-8.274,1.632-15.909,2.975-22.474
							c9.549-46.684,64.428-127.954,85.332-136.04C195.436,234.455,218.93,290.171,356.156,294.948z"/>
					</defs>
					<clipPath id="SVGID_00000043426726632956312650000011588992887790058902_">
						<use xlink:href="#SVGID_00000109744296298106709290000006758033482851300253_"  style="overflow:visible;"/>
					</clipPath>
					<g style="clip-path:url(#SVGID_00000043426726632956312650000011588992887790058902_);">
						
							<path style="fill:none;stroke:#353637;stroke-width:0.5;stroke-linecap:round;stroke-linejoin:round;stroke-miterlimit:10;" d="
							M181.162,245.456c0,0,41.528,73.348,185.057,65.52"/>
						
							<path style="fill:none;stroke:#353637;stroke-width:0.5;stroke-linecap:round;stroke-linejoin:round;stroke-miterlimit:10;" d="
							M168.063,260.495c0,0,43.329,81.962,205.255,64.751"/>
						
							<path style="fill:none;stroke:#353637;stroke-width:0.5;stroke-linecap:round;stroke-linejoin:round;stroke-miterlimit:10;" d="
							M154.83,278.508c0,0,62.9,91.15,224.441,62.036"/>
						
							<path style="fill:none;stroke:#353637;stroke-width:0.5;stroke-linecap:round;stroke-linejoin:round;stroke-miterlimit:10;" d="
							M143.308,296.283c0,0,60.875,95.805,241.415,62.811"/>
						
							<path style="fill:none;stroke:#353637;stroke-width:0.5;stroke-linecap:round;stroke-linejoin:round;stroke-miterlimit:10;" d="
							M131.187,317.474c0,0,66.71,91.446,258.645,61.651"/>
						
							<path style="fill:none;stroke:#353637;stroke-width:0.5;stroke-linecap:round;stroke-linejoin:round;stroke-miterlimit:10;" d="
							M119.879,340.959c0,0,100.151,95.53,272.992,56.618"/>
						
							<path style="fill:none;stroke:#353637;stroke-width:0.5;stroke-linecap:round;stroke-linejoin:round;stroke-miterlimit:10;" d="
							M112.569,360.827c0,0,84.008,92.186,280.302,57.006"/>
						
							<path style="fill:none;stroke:#353637;stroke-width:0.5;stroke-linecap:round;stroke-linejoin:round;stroke-miterlimit:10;" d="
							M107.633,387.43c0,0,121.992,84.239,285.238,49.059"/>
						
							<path style="fill:none;stroke:#353637;stroke-width:0.5;stroke-linecap:round;stroke-linejoin:round;stroke-miterlimit:10;" d="
							M107.129,409.837c0,0,116.1,79.956,285.742,44.242"/>
						
							<path style="fill:none;stroke:#353637;stroke-width:0.5;stroke-linecap:round;stroke-linejoin:round;stroke-miterlimit:10;" d="
							M161.136,459.943c0,0,88.484,37.313,199.889,14.925"/>
						
							<path style="fill:none;stroke:#353637;stroke-width:0.5;stroke-linecap:round;stroke-linejoin:round;stroke-miterlimit:10;" d="
							M161.136,477.533c0,0,81.022,37.224,199.889,11.949"/>
						
							<path style="fill:none;stroke:#353637;stroke-width:0.5;stroke-linecap:round;stroke-linejoin:round;stroke-miterlimit:10;" d="
							M162.735,498.28c0,0,71.96,30.425,194.025,5.905"/>
					</g>
				</g>
				
					<line style="fill:none;stroke:#353637;stroke-width:0.5;stroke-linecap:round;stroke-linejoin:round;stroke-miterlimit:10;" x1="173.92" y1="429.816" x2="174.036" y2="355.722"/>
				<polygon style="fill:#353637;" points="174.036,426.116 165.278,421.777 174.036,389.53 				"/>
				
					<line style="fill:none;stroke:#353637;stroke-width:0.5;stroke-linecap:round;stroke-linejoin:round;stroke-miterlimit:10;" x1="337.202" y1="438.025" x2="336.815" y2="345.711"/>
				<polygon style="fill:#353637;" points="346.648,418.73 336.942,424.539 336.815,355.722 				"/>
				<path style="fill:#F3EADF;" d="M257.244,244.339c0,1.06-0.859,1.919-1.919,1.919c-1.06,0-1.918-0.859-1.918-1.919
					s0.859-1.919,1.918-1.919C256.385,242.421,257.244,243.279,257.244,244.339z"/>
				<path style="fill:#F3EADF;" d="M257.244,254.104c0,1.06-0.859,1.918-1.919,1.918c-1.06,0-1.918-0.859-1.918-1.918
					s0.859-1.919,1.918-1.919C256.385,252.186,257.244,253.044,257.244,254.104z"/>
				<path style="fill:#F3EADF;" d="M257.244,263.869c0,1.06-0.859,1.919-1.919,1.919c-1.06,0-1.918-0.859-1.918-1.919
					s0.859-1.918,1.918-1.918C256.385,261.95,257.244,262.809,257.244,263.869z"/>
			</g>
			<g>
				<g>
					<path style="fill:#353637;" d="M256.743,100.026c-9.939,0-13.153,1.139-18.605,2.687c-8.743,2.482-15.978,10.243-16.661,19.306
						c-0.441,5.849-1.82,11.819-1.82,11.819s-9.28-4.969-12.35,12.142c-3.262,18.186,8.963,18.541,8.963,18.541
						s-1.331,9.809,2.042,16.254c4.197,8.02,13.58,11.809,13.58,11.809l-0.718,28.456c0,0,9.682,9.946,25.569,10.36
						c15.886-0.414,25.569-10.36,25.569-10.36l-0.718-28.456c0,0,9.383-3.789,13.58-11.809c3.373-6.446,2.042-16.254,2.042-16.254
						s12.226-0.355,8.963-18.541c-3.069-17.111-12.349-12.142-12.349-12.142s-1.379-5.97-1.82-11.819
						c-0.683-9.063-7.917-16.824-16.661-19.306C269.896,101.165,266.682,100.026,256.743,100.026z"/>
					
						<path style="fill:none;stroke:#F3EADF;stroke-width:0.5;stroke-linecap:round;stroke-linejoin:round;stroke-miterlimit:10;" d="
						M296.946,157.727c0,0,3.141-2.122,2.128-4.814c-1.014-2.692-3.383-1.87-3.475-4.774"/>
					
						<path style="fill:none;stroke:#F3EADF;stroke-width:0.5;stroke-linecap:round;stroke-linejoin:round;stroke-miterlimit:10;" d="
						M296.104,138.865c0,0,5.24-2.419,6.341,7.459"/>
					
						<path style="fill:none;stroke:#F3EADF;stroke-width:0.5;stroke-linecap:round;stroke-linejoin:round;stroke-miterlimit:10;" d="
						M216.199,157.727c0,0-3.141-2.122-2.128-4.814c1.014-2.692,3.383-1.87,3.475-4.774"/>
					
						<path style="fill:none;stroke:#F3EADF;stroke-width:0.5;stroke-linecap:round;stroke-linejoin:round;stroke-miterlimit:10;" d="
						M217.041,138.865c0,0-5.24-2.419-6.341,7.459"/>
					
						<path style="fill:none;stroke:#F3EADF;stroke-width:0.5;stroke-linecap:round;stroke-linejoin:round;stroke-miterlimit:10;" d="
						M231.892,192.584c0,0,9.929,4.978,24.85,4.978"/>
					<path style="fill:#0085BB;" d="M231.64,202.558l-0.167,6.603c0,0,25.38,13.047,50.538,0v-6.603
						C282.011,202.558,256.732,206.329,231.64,202.558z"/>
				</g>
				<g>
					<path style="fill:#F3EADF;" d="M281.593,192.584c0,0,3.758,114.073-42.535,172.414c-46.293,58.341-16.197,39.334-16.197,39.334
						s-3.515,37.263-12.161,49.103c-9.766,13.374,18.609,4.752,21.193,4.224c0,0,6.454,15.132,0,25.906
						c-6.454,10.774,32.173-5.742,39.978-12.431c0,0,7.022,6.743,6.689,15.987c-0.473,13.146,55.691-28.82,62.401-120.533
						c6.71-91.713-28.672-231.819-28.672-231.819s-13.396-57.866-55.545-49.27c0,0-28.675-11.203-48.288,29.573
						c0,0-7.206,13.027-14.772,61.25c0,0-8.755,59.99-10.867,67.486c0,0,6.765-7.099,12.62-9.354
						c5.856-2.254,35.738-13.414,35.738-13.414l0.718-28.456c0,0-9.621-3.745-13.58-11.809c-3.42-6.968-2.042-16.254-2.042-16.254
						s-11.607-1.853-8.963-18.541c2.643-16.688,12.35-12.142,12.35-12.142s7.931-1.865,10.225-7.666
						c2.294-5.8,8.47-23.14,26.861-18.253c0,0,19.159-8.998,26.192,26.945l8.498,50.839
						C291.432,185.703,287.795,189.645,281.593,192.584z"/>
					<g>
						<path style="fill:#F3EADF;" d="M252.926,106.379c-1.4,0.956-2.898,2.185-4.253,3.402c-1.375,1.235-2.68,2.552-3.862,3.955
							c-0.619,0.686-1.143,1.429-1.711,2.152c-0.492,0.758-1.053,1.494-1.47,2.291c-0.939,1.555-1.62,3.223-2.069,4.937
							l-0.293,1.299c-0.108,0.527-0.178,1.066-0.351,1.597c-0.301,1.058-0.775,2.116-1.493,3.022
							c-0.712,0.909-1.659,1.628-2.671,2.088c-1.014,0.465-2.079,0.695-3.118,0.786c-2.088,0.171-4.094-0.156-6.01-0.667
							c-1.912-0.54-3.762-1.213-5.479-2.248c-0.118-0.071-0.156-0.225-0.085-0.343c0.066-0.11,0.204-0.151,0.318-0.098l0.02,0.009
							c1.704,0.798,3.6,1.277,5.461,1.593c1.867,0.297,3.776,0.386,5.541,0.047c1.763-0.328,3.312-1.181,4.131-2.533
							c0.42-0.668,0.678-1.447,0.819-2.27c0.091-0.405,0.095-0.837,0.141-1.267l0.178-1.571c0.311-2.079,0.916-4.114,1.788-5.987
							c0.391-0.969,0.917-1.847,1.392-2.768c0.539-0.868,1.05-1.768,1.648-2.594c1.149-1.694,2.425-3.285,3.786-4.795
							c1.384-1.525,2.746-2.927,4.411-4.347c1.133-0.967,2.836-0.832,3.803,0.301c0.967,1.133,0.832,2.836-0.301,3.803
							c-0.073,0.063-0.149,0.121-0.227,0.174L252.926,106.379z"/>
					</g>
					
						<path style="fill:none;stroke:#353637;stroke-width:0.5;stroke-linecap:round;stroke-linejoin:round;stroke-miterlimit:10;" d="
						M320.54,326.953c0.947-16.14,1.006-33.978-0.145-53.635"/>
					
						<path style="fill:none;stroke:#353637;stroke-width:0.5;stroke-linecap:round;stroke-linejoin:round;stroke-miterlimit:10;" d="
						M314.58,374.373c2.154-10.709,3.916-22.561,5.088-35.631"/>
					
						<path style="fill:none;stroke:#353637;stroke-width:0.5;stroke-linecap:round;stroke-linejoin:round;stroke-miterlimit:10;" d="
						M297.749,427.287c5.603-12.019,11.305-27.675,15.688-47.501"/>
					
						<path style="fill:none;stroke:#353637;stroke-width:0.5;stroke-linecap:round;stroke-linejoin:round;stroke-miterlimit:10;" d="
						M276.56,460.06c0,0,7.624-7.074,16.575-23.592"/>
					
						<path style="fill:none;stroke:#353637;stroke-width:0.5;stroke-linecap:round;stroke-linejoin:round;stroke-miterlimit:10;" d="
						M303.877,254.104c0.176-14.284-0.255-29.396-1.432-45.346"/>
					
						<path style="fill:none;stroke:#353637;stroke-width:0.5;stroke-linecap:round;stroke-linejoin:round;stroke-miterlimit:10;" d="
						M301.909,291.915c0.356-3.807,0.669-7.687,0.935-11.64"/>
					
						<path style="fill:none;stroke:#353637;stroke-width:0.5;stroke-linecap:round;stroke-linejoin:round;stroke-miterlimit:10;" d="
						M280.163,389.433c8.623-22.789,16.876-52.804,21.007-90.268"/>
					
						<path style="fill:none;stroke:#353637;stroke-width:0.5;stroke-linecap:round;stroke-linejoin:round;stroke-miterlimit:10;" d="
						M251.311,444.24c0,0,12.003-14.456,24.542-44.048"/>
					
						<path style="fill:none;stroke:#353637;stroke-width:0.5;stroke-linecap:round;stroke-linejoin:round;stroke-miterlimit:10;" d="
						M271.142,351.694c3.609-9.1,6.852-19.153,9.219-29.955"/>
					
						<path style="fill:none;stroke:#353637;stroke-width:0.5;stroke-linecap:round;stroke-linejoin:round;stroke-miterlimit:10;" d="
						M241.549,403.536c0,0,13.919-16.473,25.88-43.067"/>
					
						<path style="fill:none;stroke:#353637;stroke-width:0.5;stroke-linecap:round;stroke-linejoin:round;stroke-miterlimit:10;" d="
						M312.138,183.627c3.167,14.47,6.318,31.802,7.53,47.774"/>
					
						<path style="fill:none;stroke:#353637;stroke-width:0.5;stroke-linecap:round;stroke-linejoin:round;stroke-miterlimit:10;" d="
						M303.915,150.987c0,0,2.467,8.327,5.48,20.756"/>
					
						<line style="fill:none;stroke:#353637;stroke-width:0.5;stroke-linecap:round;stroke-linejoin:round;stroke-miterlimit:10;" x1="217.546" y1="197.563" x2="215.708" y2="221.041"/>
					
						<line style="fill:none;stroke:#353637;stroke-width:0.5;stroke-linecap:round;stroke-linejoin:round;stroke-miterlimit:10;" x1="199.497" y1="215.393" x2="197.697" y2="227.339"/>
					
						<line style="fill:none;stroke:#353637;stroke-width:0.5;stroke-linecap:round;stroke-linejoin:round;stroke-miterlimit:10;" x1="202.34" y1="196.524" x2="200.497" y2="208.758"/>
				</g>
				<g>
					<g>
						<g>
							<path style="fill:none;stroke:#0085BB;stroke-width:3;stroke-linecap:round;stroke-linejoin:round;" d="M204.957,118.287
								c0,0,0.095,0.141,0.28,0.409"/>
							
								<path style="fill:none;stroke:#0085BB;stroke-width:3;stroke-linecap:round;stroke-linejoin:round;stroke-dasharray:0.9842,7.8734;" d="
								M209.89,125.042c8.314,10.853,26.098,31.854,45.269,40.755c0,0,20.332-6.999,50.416-44.038"/>
							<path style="fill:none;stroke:#0085BB;stroke-width:3;stroke-linecap:round;stroke-linejoin:round;" d="M308.044,118.68
								c0.103-0.131,0.207-0.262,0.311-0.393"/>
						</g>
					</g>
					<g>
						<g>
							<path style="fill:none;stroke:#0085BB;stroke-width:3;stroke-linecap:round;stroke-linejoin:round;" d="M204.957,109.68
								c0,0,0.095,0.141,0.28,0.409"/>
							
								<path style="fill:none;stroke:#0085BB;stroke-width:3;stroke-linecap:round;stroke-linejoin:round;stroke-dasharray:0.9842,7.8734;" d="
								M209.89,116.435c8.314,10.853,26.098,31.854,45.269,40.755c0,0,20.332-6.999,50.416-44.038"/>
							<path style="fill:none;stroke:#0085BB;stroke-width:3;stroke-linecap:round;stroke-linejoin:round;" d="M308.044,110.073
								c0.103-0.131,0.207-0.262,0.311-0.393"/>
						</g>
					</g>
					<g>
						<g>
							<path style="fill:none;stroke:#0085BB;stroke-width:3;stroke-linecap:round;stroke-linejoin:round;" d="M204.957,101.073
								c0,0,0.095,0.141,0.28,0.409"/>
							
								<path style="fill:none;stroke:#0085BB;stroke-width:3;stroke-linecap:round;stroke-linejoin:round;stroke-dasharray:0.9842,7.8734;" d="
								M209.89,107.828c8.314,10.853,26.098,31.854,45.269,40.755c0,0,20.332-6.999,50.416-44.038"/>
							<path style="fill:none;stroke:#0085BB;stroke-width:3;stroke-linecap:round;stroke-linejoin:round;" d="M308.044,101.466
								c0.103-0.131,0.207-0.262,0.311-0.393"/>
						</g>
					</g>
					<g>
						<g>
							<path style="fill:none;stroke:#0085BB;stroke-width:3;stroke-linecap:round;stroke-linejoin:round;" d="M204.957,92.465
								c0,0,0.095,0.141,0.28,0.409"/>
							
								<path style="fill:none;stroke:#0085BB;stroke-width:3;stroke-linecap:round;stroke-linejoin:round;stroke-dasharray:0.9842,7.8734;" d="
								M209.89,99.221c8.314,10.853,26.098,31.854,45.269,40.755c0,0,20.332-6.999,50.416-44.038"/>
							<path style="fill:none;stroke:#0085BB;stroke-width:3;stroke-linecap:round;stroke-linejoin:round;" d="M308.044,92.859
								c0.103-0.131,0.207-0.262,0.311-0.393"/>
						</g>
					</g>
					<g>
						<g>
							<path style="fill:none;stroke:#0085BB;stroke-width:3;stroke-linecap:round;stroke-linejoin:round;" d="M212.276,93.67
								c0.103,0.129,0.206,0.259,0.311,0.39"/>
							
								<path style="fill:none;stroke:#0085BB;stroke-width:3;stroke-linecap:round;stroke-linejoin:round;stroke-dasharray:0.9981,7.9849;" d="
								M217.684,100.203c9.411,10.921,23.051,24.469,37.475,31.165c0,0,16.667-5.737,42.149-34.313"/>
							<path style="fill:none;stroke:#0085BB;stroke-width:3;stroke-linecap:round;stroke-linejoin:round;" d="M299.947,94.05
								c0.109-0.126,0.218-0.253,0.328-0.38"/>
						</g>
					</g>
					<g>
						<g>
							<path style="fill:none;stroke:#0085BB;stroke-width:3;stroke-linecap:round;stroke-linejoin:round;" d="M216.82,90.587
								c0.107,0.126,0.215,0.253,0.324,0.38"/>
							
								<path style="fill:none;stroke:#0085BB;stroke-width:3;stroke-linecap:round;stroke-linejoin:round;stroke-dasharray:1.0395,8.3164;" d="
								M222.674,97.175c8.945,9.627,20.441,19.995,32.485,25.586c0,0,14.646-5.042,37.471-29.212"/>
							<path style="fill:none;stroke:#0085BB;stroke-width:3;stroke-linecap:round;stroke-linejoin:round;" d="M295.463,90.495
								c0.112-0.123,0.225-0.247,0.337-0.371"/>
						</g>
					</g>
					<g>
						<g>
							<path style="fill:none;stroke:#0085BB;stroke-width:3;stroke-linecap:round;stroke-linejoin:round;" d="M220.151,85.8
								c0.11,0.123,0.221,0.247,0.332,0.37"/>
							
								<path style="fill:none;stroke:#0085BB;stroke-width:3;stroke-linecap:round;stroke-linejoin:round;stroke-dasharray:0.9976,7.9805;" d="
								M225.939,91.993c8.397,8.579,18.595,17.228,29.22,22.161c0,0,12.322-4.242,31.975-23.596"/>
							<path style="fill:none;stroke:#0085BB;stroke-width:3;stroke-linecap:round;stroke-linejoin:round;" d="M289.955,87.727
								c0.116-0.119,0.233-0.239,0.35-0.359"/>
						</g>
					</g>
					<g>
						<g>
							<path style="fill:none;stroke:#0085BB;stroke-width:3;stroke-linecap:round;stroke-linejoin:round;" d="M224.399,81.793
								c0.115,0.12,0.23,0.241,0.345,0.361"/>
							
								<path style="fill:none;stroke:#0085BB;stroke-width:3;stroke-linecap:round;stroke-linejoin:round;stroke-dasharray:0.9557,7.6455;" d="
								M230.161,87.55c7.494,7.123,16.097,13.865,24.999,17.997c0,0,10.557-3.634,27.711-19.521"/>
							<path style="fill:none;stroke:#0085BB;stroke-width:3;stroke-linecap:round;stroke-linejoin:round;" d="M285.651,83.397
								c0.12-0.116,0.24-0.232,0.361-0.349"/>
						</g>
					</g>
					<g>
						<g>
							<path style="fill:none;stroke:#0085BB;stroke-width:3;stroke-linecap:round;stroke-linejoin:round;" d="M229.675,78.479
								c0.12,0.115,0.241,0.231,0.362,0.346"/>
							
								<path style="fill:none;stroke:#0085BB;stroke-width:3;stroke-linecap:round;stroke-linejoin:round;stroke-dasharray:1.0192,8.1535;" d="
								M236.096,84.28c5.965,5.054,12.431,9.581,19.063,12.66c0,0,8.727-3.004,23.206-15.492"/>
							<path style="fill:none;stroke:#0085BB;stroke-width:3;stroke-linecap:round;stroke-linejoin:round;" d="M281.419,78.748
								c0.124-0.112,0.247-0.224,0.372-0.338"/>
						</g>
					</g>
					<g>
						<g>
							<path style="fill:none;stroke:#0085BB;stroke-width:3;stroke-linecap:round;stroke-linejoin:round;" d="M236.467,78.052
								c0.128,0.107,0.255,0.214,0.383,0.321"/>
							
								<path style="fill:none;stroke:#0085BB;stroke-width:3;stroke-linecap:round;stroke-linejoin:round;stroke-dasharray:0.9235,7.3876;" d="
								M242.675,82.919c4.034,2.928,8.225,5.503,12.484,7.481c0,0,7.284-2.507,19.582-12.462"/>
							<path style="fill:none;stroke:#0085BB;stroke-width:3;stroke-linecap:round;stroke-linejoin:round;" d="M277.582,75.578
								c0.127-0.108,0.254-0.217,0.382-0.326"/>
						</g>
					</g>
				</g>
				<path style="fill:#0085BB;" d="M212.688,159.017l-7.731,30.61h16.575l-7.731-30.61
					C213.655,158.439,212.834,158.439,212.688,159.017z"/>
			</g>
		</g>
	</g>
</g>
</svg>
